<svg width="22" height="28" viewBox="0 0 22 28" fill="none" xmlns="http://www.w3.org/2000/svg">
<path d="M10.8254 27.0603C7.74045 27.0603 4.65552 27.0603 1.57058 27.0603C0.518801 27.0603 0.00391179 26.541 0.00391179 25.4804C0.00391179 23.7685 -0.00488974 22.0566 0.00391179 20.3447C0.0303164 17.0926 2.18229 14.3993 5.33324 13.6952C5.82172 13.5852 6.33661 13.5412 6.8427 13.5412C9.49636 13.5279 12.1456 13.5323 14.7993 13.5367C18.6015 13.5411 21.5721 16.4325 21.6513 20.2303C21.6865 22.039 21.6645 23.8433 21.6557 25.6521C21.6513 26.5322 21.0836 27.0647 20.177 27.0647C17.0613 27.0647 13.9455 27.0647 10.8254 27.0647V27.0603ZM2.76759 24.3406H18.936C18.936 22.8664 18.9976 21.4185 18.9228 19.9751C18.8128 17.9375 17.0921 16.2872 15.0765 16.2608C12.2468 16.2256 9.41274 16.2256 6.58305 16.2608C4.68632 16.2828 2.96122 17.7747 2.7984 19.667C2.66197 21.2073 2.77199 22.7696 2.77199 24.345L2.76759 24.3406Z" fill="#606060"/>
<path d="M16.2339 5.41294C16.2339 8.40546 13.8266 10.8171 10.8341 10.8171C7.83281 10.8171 5.41239 8.39226 5.42559 5.39094C5.43439 2.39842 7.85041 -0.00439473 10.8385 6.03534e-06C13.831 0.0044068 16.2339 2.41602 16.2339 5.40854V5.41294ZM10.8209 2.70207C9.33787 2.71088 8.12326 3.92989 8.11886 5.41294C8.11886 6.8916 9.33787 8.11501 10.8165 8.12381C12.304 8.13262 13.5494 6.8828 13.5318 5.39974C13.5186 3.91228 12.2908 2.69767 10.8165 2.70648L10.8209 2.70207Z" fill="#606060"/>
</svg>
