<svg width="31" height="30" viewBox="0 0 31 30" fill="none" xmlns="http://www.w3.org/2000/svg">
<g clip-path="url(#clip0_289_591)">
<path d="M15.2266 30C11.6664 30 8.11061 30 4.55039 30C1.86592 30 0 28.1297 0 25.4452C0 20.4372 0.00440076 15.4291 0 10.4166C0 8.5287 0.818542 7.14686 2.48203 6.2579C5.97624 4.38758 9.46604 2.51285 12.947 0.624926C14.4741 -0.202418 15.9792 -0.211219 17.5106 0.616124C21.0048 2.50405 24.5035 4.38318 28.0021 6.2667C29.6523 7.15566 30.4709 8.5287 30.4665 10.4034C30.4621 15.4247 30.4665 20.4416 30.4665 25.4628C30.4665 28.1209 28.5874 30 25.9337 30C22.3647 30 18.7957 30 15.2266 30ZM9.7961 27.826C9.7961 27.6544 9.7961 27.5312 9.7961 27.408C9.7961 25.322 9.7785 23.2404 9.8005 21.1545C9.83131 18.2984 12.2385 15.9088 15.0858 15.8604C18.1972 15.812 20.6616 18.2192 20.6704 21.3349C20.6792 23.3725 20.6704 25.4144 20.6704 27.452C20.6704 27.5708 20.6704 27.6896 20.6704 27.826C22.5099 27.826 24.2966 27.8304 26.0877 27.826C27.3375 27.8216 28.2837 26.8799 28.2837 25.6301C28.2881 20.4768 28.2881 15.3191 28.2837 10.1658C28.2837 9.28563 27.8832 8.61671 27.1087 8.20304C23.5133 6.28871 19.9091 4.38758 16.3136 2.47765C15.5391 2.06838 14.7866 2.07718 14.012 2.49525C10.4958 4.39198 6.97961 6.28431 3.459 8.17223C2.59645 8.63431 2.16958 9.33404 2.16958 10.311C2.17398 15.3851 2.16958 20.4636 2.16958 25.5376C2.16958 26.8975 3.09374 27.826 4.44917 27.8304C6.11266 27.8304 7.78055 27.8304 9.44404 27.8304C9.54525 27.8304 9.64207 27.8304 9.7829 27.8304L9.7961 27.826ZM11.9701 27.8084H18.4612C18.4744 27.7732 18.492 27.7512 18.492 27.7292C18.492 25.5112 18.5316 23.2889 18.4788 21.0753C18.4392 19.425 17.0001 18.0828 15.3499 18.0387C13.4707 17.9859 11.9789 19.4426 11.9701 21.3525C11.9613 23.4033 11.9701 25.4496 11.9701 27.5004C11.9701 27.5972 11.9701 27.6984 11.9701 27.8128V27.8084Z" fill="#606060"/>
</g>
<defs>
<clipPath id="clip0_289_591">
<rect width="30.4665" height="30" fill="white"/>
</clipPath>
</defs>
</svg>
