<?xml version="1.0" encoding="UTF-8"?>
<svg id="uuid-dee369a2-3404-4552-a768-3d66ff6c7413" data-name="Layer 2" xmlns="http://www.w3.org/2000/svg" viewBox="0 0 68 95.08">
  <g id="uuid-21160798-c441-481a-b7f6-6a4c80ecfcc2" data-name="Layer 1">
    <path d="M37.68,0c1.51.44,3,.93,4.52,1.32,19.66,5.13,30.34,24.61,23.95,44.4-1.89,5.84-4.31,11.72-7.62,16.84-6.65,10.27-13.99,20.09-21.23,29.97-2.41,3.29-3.87,3.31-6.21.56-11.2-13.16-21.46-26.95-27.95-43.14C-5.11,29.39,3.41,8.87,22.88,2.2c2.42-.83,4.9-1.47,7.35-2.2,2.48,0,4.96,0,7.44,0ZM51.57,34.36c-.11-9.85-8.01-17.53-17.95-17.43-9.58.09-17.44,8.14-17.3,17.72.14,9.78,8.32,17.77,17.96,17.55,9.57-.22,17.4-8.29,17.29-17.84Z" fill="#f03535" stroke-width="0"/>
  </g>
</svg>