<svg width="31" height="30" viewBox="0 0 31 30" fill="none" xmlns="http://www.w3.org/2000/svg">
<g clip-path="url(#clip0_289_607)">
<path d="M6.47524 12.9479C5.16499 12.9479 3.85389 12.9505 2.54363 12.9479C0.994221 12.9437 0.0051252 11.9597 0.00341692 10.4145C3.50992e-07 7.78293 3.50992e-07 5.15133 0.00341692 2.51886C0.00597934 0.992512 0.996783 0.00512485 2.5274 0.00256242C5.15901 -0.000854141 7.79148 -0.000854141 10.4231 0.00256242C11.9546 0.00427071 12.9454 0.990804 12.9479 2.51801C12.9522 5.16072 12.9531 7.80258 12.9479 10.4453C12.9445 11.9511 11.9494 12.9402 10.4402 12.9462C9.11881 12.9513 7.79746 12.9471 6.4761 12.9471L6.47524 12.9479ZM10.9031 6.47524C10.9031 5.17524 10.9031 3.87609 10.9031 2.57609C10.9031 2.11742 10.8365 2.04823 10.3915 2.04823C7.78123 2.04738 5.17097 2.04738 2.56072 2.04823C2.1234 2.04823 2.04909 2.11912 2.04909 2.54363C2.04738 5.16414 2.04738 7.7855 2.04909 10.406C2.04909 10.8314 2.1234 10.9023 2.55986 10.9031C5.17012 10.904 7.78037 10.904 10.3906 10.9031C10.8356 10.9031 10.9031 10.8322 10.9031 10.3753C10.9048 9.07525 10.9031 7.7761 10.9031 6.4761V6.47524Z" fill="#606060"/>
<path d="M22.8303 0.00170158C24.1516 0.00170158 25.473 -0.00171499 26.7944 0.00170158C28.3233 0.00597228 29.3124 0.992505 29.3149 2.52142C29.3192 5.15303 29.3192 7.78549 29.3149 10.4171C29.3124 11.9622 28.3233 12.9445 26.7704 12.9462C24.1491 12.9488 21.5277 12.9496 18.9072 12.9462C17.3595 12.9445 16.3721 11.9571 16.3704 10.4094C16.367 7.78805 16.3679 5.16669 16.3704 2.54619C16.3721 0.979693 17.3561 0.004264 18.9311 0.00170158C20.2311 -0.000860845 21.5311 0.00170158 22.8311 0.00170158H22.8303ZM27.2701 6.47524C27.2701 5.18634 27.2701 3.89744 27.2701 2.60769C27.2701 2.10716 27.2129 2.04737 26.726 2.04737C24.1371 2.04737 21.5482 2.04737 18.9593 2.04737C18.4801 2.04737 18.4152 2.10972 18.4152 2.57523C18.4144 5.17438 18.4144 7.77439 18.4152 10.3735C18.4152 10.839 18.4801 10.9023 18.9585 10.9023C21.5474 10.9023 24.1363 10.9023 26.7252 10.9023C27.212 10.9023 27.2693 10.8425 27.2701 10.3419C27.2701 9.05304 27.2701 7.76414 27.2701 6.47438V6.47524Z" fill="#606060"/>
<path d="M6.45901 29.3158C5.14876 29.3158 3.83765 29.3193 2.5274 29.3158C0.998483 29.3107 0.00597094 28.3233 0.00340851 26.7987C-0.000862194 24.156 -0.00171634 21.5141 0.00340851 18.8714C0.00597094 17.3647 1.00105 16.3739 2.51117 16.3713C5.15388 16.3671 7.79659 16.3671 10.4385 16.3713C11.9486 16.3739 12.9428 17.3638 12.9462 18.8714C12.9513 21.5244 12.9522 24.1773 12.9462 26.8311C12.9428 28.3174 11.9443 29.309 10.4547 29.3158C9.12307 29.3218 7.79061 29.3176 6.45901 29.3176V29.3158ZM2.04737 22.8099C2.04737 24.1201 2.04737 25.4304 2.04737 26.7415C2.04737 27.2001 2.11399 27.2702 2.559 27.2702C5.16925 27.271 7.77951 27.271 10.3898 27.2702C10.8348 27.2702 10.9023 27.1993 10.9023 26.7423C10.9031 24.1432 10.9031 21.5432 10.9023 18.944C10.9023 18.4853 10.8356 18.4162 10.3906 18.4162C7.78036 18.4153 5.17011 18.4153 2.55985 18.4162C2.11399 18.4162 2.04822 18.4853 2.04737 18.9432C2.04651 20.2321 2.04737 21.521 2.04737 22.8107V22.8099Z" fill="#606060"/>
<path d="M22.8295 30C22.1966 29.9786 21.6363 29.7711 21.1853 29.3235C19.5761 27.7228 17.9626 26.1265 16.3739 24.5062C15.4369 23.5512 15.4437 22.1214 16.3807 21.169C17.9652 19.559 19.5624 17.9617 21.1733 16.3773C22.1248 15.4412 23.5598 15.4386 24.5113 16.3739C26.1222 17.9575 27.7195 19.5547 29.303 21.1656C30.2503 22.1282 30.2452 23.5632 29.2953 24.5275C27.7177 26.1299 26.1214 27.7126 24.5284 29.2996C24.0612 29.7651 23.4863 29.9855 22.8295 30ZM22.8415 17.6893C22.7227 17.7747 22.6014 17.8387 22.5083 17.931C20.9769 19.4565 19.4488 20.9845 17.9216 22.5143C17.6637 22.7722 17.6611 22.9081 17.9122 23.16C19.4462 24.6975 20.982 26.2332 22.5194 27.7681C22.7723 28.0201 22.9132 28.0209 23.1669 27.7673C24.7043 26.2332 26.2409 24.6975 27.7741 23.1592C28.0158 22.9166 28.0184 22.7705 27.7827 22.5331C26.2418 20.9871 24.6975 19.4445 23.1515 17.9036C23.0721 17.8251 22.9653 17.7738 22.8389 17.6884L22.8415 17.6893Z" fill="#606060"/>
</g>
<defs>
<clipPath id="clip0_289_607">
<rect width="30.0103" height="30" fill="white"/>
</clipPath>
</defs>
</svg>
